<?xml version="1.0" encoding="UTF-8"?>
<svg xmlns="http://www.w3.org/2000/svg" xmlns:xlink="http://www.w3.org/1999/xlink" width="24px" height="24px" viewBox="0 0 24 24" version="1.1">
<g id="surface1">
<path style=" stroke:none;fill-rule:nonzero;fill:rgb(0%,0%,0%);fill-opacity:1;" d="M 24.015625 8.398438 C 24.015625 10.425781 23.140625 12.246094 21.753906 13.507812 L 21.761719 13.507812 L 14.257812 21.011719 C 13.507812 21.761719 12.757812 22.515625 12.007812 22.515625 C 11.257812 22.515625 10.507812 21.761719 9.757812 21.011719 L 2.25 13.507812 L 2.261719 13.507812 C 0.871094 12.246094 0 10.425781 0 8.398438 C 0 4.589844 3.089844 1.5 6.898438 1.5 C 8.925781 1.5 10.746094 2.375 12.007812 3.765625 C 13.269531 2.375 15.089844 1.5 17.117188 1.5 C 20.925781 1.5 24.015625 4.589844 24.015625 8.398438 Z M 24.015625 8.398438 "/>
</g>
</svg>
