<?xml version="1.0" encoding="UTF-8"?>
<svg xmlns="http://www.w3.org/2000/svg" xmlns:xlink="http://www.w3.org/1999/xlink" width="24px" height="24px" viewBox="0 0 24 24" version="1.1">
<g id="surface1">
<path style=" stroke:none;fill-rule:nonzero;fill:rgb(0%,0%,0%);fill-opacity:1;" d="M 6.179688 10.523438 L 11.992188 18.132812 L 17.804688 10.582031 L 17.800781 10.582031 C 18.597656 9.492188 19.0625 8.167969 19.0625 6.738281 C 19.0625 3.019531 15.898438 0 11.992188 0 C 8.085938 0 4.921875 3 4.921875 6.703125 C 4.921875 8.121094 5.386719 9.441406 6.183594 10.523438 Z M 11.992188 3.238281 C 14.035156 3.238281 15.691406 4.757812 15.691406 6.632812 C 15.691406 8.511719 14.035156 10.03125 11.992188 10.03125 C 9.949219 10.03125 8.292969 8.511719 8.292969 6.632812 C 8.292969 4.757812 9.949219 3.238281 11.992188 3.238281 Z M 11.992188 9.390625 C 13.664062 9.390625 15.019531 8.160156 15.019531 6.640625 C 15.019531 5.121094 13.664062 3.886719 11.992188 3.886719 C 10.320312 3.886719 8.964844 5.121094 8.964844 6.640625 C 8.964844 8.160156 10.320312 9.390625 11.992188 9.390625 Z M 8.960938 15.347656 L 8.960938 19.910156 L 15.023438 22.824219 L 15.023438 15.375 L 11.992188 19.421875 Z M 19.734375 6.636719 C 19.730469 8.230469 19.222656 9.710938 18.355469 10.929688 L 15.695312 14.480469 L 15.695312 22.824219 L 22.09375 19.75 L 22.09375 5.503906 Z M 5.628906 10.863281 C 4.945312 9.90625 4.488281 8.785156 4.320312 7.574219 L 1.890625 8.742188 L 1.890625 22.984375 L 8.289062 19.910156 L 8.289062 14.441406 Z M 5.628906 10.863281 "/>
</g>
</svg>
