<?xml version="1.0" encoding="UTF-8"?>
<svg xmlns="http://www.w3.org/2000/svg" xmlns:xlink="http://www.w3.org/1999/xlink" width="24px" height="24px" viewBox="0 0 24 24" version="1.1">
<g id="surface1">
<path style=" stroke:none;fill-rule:evenodd;fill:rgb(0%,0%,0%);fill-opacity:1;" d="M 18.855469 7.957031 C 18.855469 3.9375 15.769531 0.570312 11.71875 0.570312 C 7.671875 0.570312 4.570312 3.941406 4.570312 7.960938 C 4.570312 9.285156 4.757812 10.285156 5.382812 11.429688 L 5.371094 11.429688 L 11.484375 23.210938 C 11.714844 23.527344 11.953125 23.195312 11.953125 23.195312 C 11.75 23.503906 18.066406 11.429688 18.066406 11.429688 L 18.0625 11.429688 C 18.683594 10.285156 18.855469 9.285156 18.855469 7.957031 Z M 8.429688 7.730469 C 8.429688 5.835938 9.902344 4.300781 11.71875 4.300781 C 13.535156 4.300781 15.011719 5.835938 15.011719 7.730469 C 15.011719 9.625 13.535156 11.160156 11.71875 11.160156 C 9.902344 11.160156 8.429688 9.625 8.429688 7.730469 Z M 8.429688 7.730469 "/>
</g>
</svg>
