<?xml version="1.0" standalone="no"?>
<!DOCTYPE svg PUBLIC "-//W3C//DTD SVG 20010904//EN"
 "http://www.w3.org/TR/2001/REC-SVG-20010904/DTD/svg10.dtd">
<svg version="1.0" xmlns="http://www.w3.org/2000/svg"
 width="64.000000pt" height="64.000000pt" viewBox="0 0 64.000000 64.000000"
 preserveAspectRatio="xMidYMid meet">

<g transform="translate(0.000000,64.000000) scale(0.100000,-0.100000)"
fill="#000000" stroke="none">
<path d="M395 575 c-14 -13 -25 -29 -25 -35 0 -6 11 -22 25 -35 13 -14 29 -25
35 -25 6 0 22 11 35 25 14 13 25 29 25 35 0 6 -11 22 -25 35 -13 14 -29 25
-35 25 -6 0 -22 -11 -35 -25z m70 -35 c0 -33 -2 -35 -35 -35 -29 0 -36 4 -38
23 -6 40 5 54 40 50 30 -3 33 -6 33 -38z"/>
<path d="M370 468 c-28 -10 -122 -139 -124 -169 -1 -11 -14 -35 -30 -55 -28
-35 -28 -35 -50 -16 -42 38 -56 36 -102 -14 -53 -59 -58 -77 -30 -112 13 -15
26 -35 29 -45 9 -23 31 -17 36 9 2 10 26 47 54 82 35 45 52 60 58 51 4 -8 11
-10 15 -6 4 4 2 13 -4 19 -9 9 -6 18 15 40 15 15 32 28 39 28 7 0 26 17 43 38
l30 37 1 -50 c0 -65 -9 -95 -27 -95 -10 0 -13 -6 -9 -17 5 -11 -5 -29 -30 -54
-43 -44 -45 -82 -3 -87 20 -2 35 8 70 46 24 26 49 56 54 66 9 16 16 10 55 -44
53 -73 72 -86 94 -64 20 20 21 19 -10 71 -16 29 -23 51 -19 64 5 16 3 20 -6
17 -20 -7 -49 46 -49 87 0 40 1 40 42 19 26 -14 32 -14 45 -2 18 19 8 44 -25
58 -15 6 -42 30 -60 54 -34 46 -62 58 -102 44z m68 -20 c7 -7 12 -43 12 -92 0
-76 2 -83 50 -172 28 -51 50 -100 50 -108 0 -32 -30 -15 -73 42 -97 127 -107
147 -107 206 0 31 -4 56 -10 56 -5 0 -24 -20 -42 -45 -32 -43 -58 -58 -58 -32
0 6 23 45 51 85 45 64 54 72 83 72 17 0 37 -5 44 -12z m101 -98 c17 -9 20 -15
12 -23 -8 -8 -20 -6 -46 6 -27 13 -35 23 -35 44 l0 26 23 -20 c12 -11 33 -26
46 -33z m-145 -172 c-9 -28 -93 -118 -111 -118 -30 0 -24 31 15 73 21 24 45
60 52 81 l12 37 20 -26 c13 -17 17 -32 12 -47z m-304 12 c-52 -62 -41 -66 14
-5 37 40 43 43 59 31 16 -13 15 -17 -23 -62 -22 -27 -48 -52 -58 -55 -20 -8
-52 17 -52 39 0 21 68 102 87 102 10 0 1 -17 -27 -50z m0 -120 c0 -5 -4 -10
-10 -10 -5 0 -10 5 -10 10 0 6 5 10 10 10 6 0 10 -4 10 -10z"/>
<path d="M260 200 c0 -5 5 -10 10 -10 6 0 10 5 10 10 0 6 -4 10 -10 10 -5 0
-10 -4 -10 -10z"/>
<path d="M560 200 c0 -5 5 -10 10 -10 6 0 10 5 10 10 0 6 -4 10 -10 10 -5 0
-10 -4 -10 -10z"/>
<path d="M610 200 c0 -5 5 -10 10 -10 6 0 10 5 10 10 0 6 -4 10 -10 10 -5 0
-10 -4 -10 -10z"/>
</g>
</svg>
